<?xml version="1.0" standalone="no"?> <!DOCTYPE svg PUBLIC "-//W3C//DTD SVG 1.0//EN" "http://www.w3.org/TR/2001/REC-SVG-20010904/DTD/svg10.dtd" > <svg xmlns="http://www.w3.org/2000/svg" width="100%" height="100%">
<defs >
<font id="klavikamedcaps-sc" horiz-adv-x="482" ><font-face
    font-family="Klavika Med Caps"
    units-per-em="1000"
    panose-1="2 0 6 3 4 0 0 2 0 4"
    ascent="750"
    descent="-170"
    alphabetic="0" />
<missing-glyph horiz-adv-x="636" d="M85 0V666H551V0H85ZM502 616H162L502 89V616ZM134 576V49H473L134 576Z" />
<glyph unicode=" " glyph-name="space" horiz-adv-x="210" />
<glyph unicode="!" glyph-name="exclam" horiz-adv-x="294" d="M181 179H113L84 301V520H210V301L181 179ZM83 0V123H211V0H83Z" />
<glyph unicode="&quot;" glyph-name="quotedbl" horiz-adv-x="387" d="M147 439H60V686H147V439ZM327 439H240V686H327V439Z" />
<glyph unicode="#" glyph-name="numbersign" horiz-adv-x="629" d="M565 120H464L457 0H375L382 120H241L233 0H152L159 120H53L59 198H164L172 327H67L72 404H177L184 520H266L258 404H400L408 520H489L482 404H584L578 327H477L469 198H571L565 120ZM253 327L246
198H388L395 327H253Z" />
<glyph unicode="$" glyph-name="dollar" horiz-adv-x="484" d="M192 -103V-8Q113 -1 55 24L73 115Q158 89 235 89Q282 89 297 101T313 145Q313 182 300 191T210 216Q159 226 128 240T83 277T65 322T61 385Q61 455 94 488T205 528V623H303V528Q363 525 422 509L409
413Q330 431 257 431Q208 431 195 422T182 378Q182 344 196 334T278 309Q334 297 365 285T412 251T430 210T434 150Q434 76 405 39T289 -7V-103H192Z" />
<glyph unicode="%" glyph-name="percent" horiz-adv-x="780" d="M237 25L469 530L544 495L312 -10L237 25ZM323 411V355Q323 299 293 268T187 236T81 267T50 355V411Q50 467 80 498T187 530T293 499T323 411ZM236 420Q236 456 187 456Q137 456 137 420V346Q137
310 187 310Q236 310 236 346V420ZM730 165V109Q730 53 700 22T594 -10T488 21T457 109V165Q457 221 487 252T594 284T700 253T730 165ZM643 174Q643 210 594 210Q544 210 544 174V100Q544 64 594 64Q643 64 643 100V174Z" />
<glyph unicode="&amp;" glyph-name="ampersand" horiz-adv-x="591" d="M561 214H477V21Q381 -10 270 -10Q157 -10 114 22T70 122V167Q70 242 136 268Q81 297 81 359V402Q81 469 125 499T270 530Q375 530 456 510L445 415Q355 430 270 430Q232 430 218 421T203
389V350Q203 307 255 307H561V214ZM270 86Q320 86 367 97V214H252Q220 214 206 202T192 164V136Q192 109 209 98T270 86Z" />
<glyph unicode="&apos;" glyph-name="quotesingle" horiz-adv-x="207" d="M147 439H60V686H147V439Z" />
<glyph unicode="(" glyph-name="parenleft" horiz-adv-x="335" d="M315 -102L225 -154Q70 46 70 304T225 762L315 710Q251 606 222 514T193 304T222 95T315 -102Z" />
<glyph unicode=")" glyph-name="parenright" horiz-adv-x="335" d="M110 -154L20 -102Q84 2 113 94T142 304T113 513T20 710L110 762Q265 562 265 304T110 -154Z" />
<glyph unicode="*" glyph-name="asterisk" horiz-adv-x="502" d="M121 375L194 488H60V547H196L122 664L171 696L250 574L329 696L379 664L303 547H442V488H306L379 375L328 343L250 464L172 343L121 375Z" />
<glyph unicode="+" glyph-name="plus" horiz-adv-x="528" d="M60 195V291H214V446H314V291H468V195H314V40H214V195H60Z" />
<glyph unicode="," glyph-name="comma" horiz-adv-x="274" d="M75 0V140H199V-8L121 -139L65 -108L121 0H75Z" />
<glyph unicode="-" glyph-name="hyphen" horiz-adv-x="372" d="M60 229V331H312V229H60Z" />
<glyph unicode="." glyph-name="period" horiz-adv-x="274" d="M75 0V140H199V0H75Z" />
<glyph unicode="/" glyph-name="slash" horiz-adv-x="459" d="M414 676L165 -117H55L303 676H414Z" />
<glyph unicode="0" glyph-name="zero" horiz-adv-x="556" d="M491 155Q491 -10 278 -10Q165 -10 115 36T65 158V365Q65 530 278 530T491 365V155ZM369 349Q369 389 348 406T278 423T208 406T187 349V171Q187 131 208 114T278 97T348 114T369 171V349Z" />
<glyph unicode="1" glyph-name="one" horiz-adv-x="385" d="M68 317L15 414L192 520H305V0H183V383L68 317Z" />
<glyph unicode="2" glyph-name="two" horiz-adv-x="498" d="M54 0V99L179 204Q267 277 285 297T303 346V369Q303 402 285 411T208 421Q156 421 70 402L52 504Q130 530 220 530Q334 530 379 496T425 381V359Q425 300 410 269T341 190L241 103H438V0H54Z" />
<glyph unicode="3" glyph-name="three" horiz-adv-x="488" d="M55 13L67 105Q132 90 207 90Q261 90 282 100T304 139V160Q304 186 287 198T230 210H98V312H214Q257 312 272 322T288 359V383Q288 410 271 420T202 430Q139 430 72 417L62 512Q130 530 211 530Q321
530 365 501T410 401V369Q410 331 398 307T352 265Q426 244 426 166V135Q426 60 380 25T210 -10Q126 -10 55 13Z" />
<glyph unicode="4" glyph-name="four" horiz-adv-x="532" d="M502 115H418V0H303V115H30V215L271 520H418V207H502V115ZM151 207H303V410L151 207Z" />
<glyph unicode="5" glyph-name="five" horiz-adv-x="501" d="M80 218V520H424V418H202V316Q240 316 297 313Q378 309 408 276T439 175V140Q438 58 392 24T225 -10Q135 -10 60 15L76 110Q151 92 225 92Q278 92 297 103T317 144V164Q317 191 302 202T245 214Q186
216 80 218Z" />
<glyph unicode="6" glyph-name="six" horiz-adv-x="509" d="M182 344V302Q226 317 287 317Q372 317 412 285T452 183V140Q452 -10 256 -10Q147 -10 104 28T60 139V348Q60 449 118 489T301 530Q370 530 434 515L422 417Q365 428 310 428Q236 428 209 411T182 344ZM273
217Q226 217 182 201V140Q182 113 200 102T256 90Q296 90 313 102T330 140V177Q330 199 317 208T273 217Z" />
<glyph unicode="7" glyph-name="seven" horiz-adv-x="459" d="M35 414V520H431V420L207 0H74L299 414H35Z" />
<glyph unicode="8" glyph-name="eight" horiz-adv-x="538" d="M460 368Q460 302 389 266Q432 246 453 222T475 161V124Q475 54 425 22T268 -10Q159 -10 111 21T63 124V161Q63 198 84 222T149 266Q78 303 78 368V402Q78 530 268 530Q460 530 460 402V368ZM356 155Q356
179 338 191T268 221Q219 204 201 192T182 155V136Q182 109 201 97T268 85T335 97T356 136V155ZM196 366Q196 344 211 333T268 305Q309 320 325 332T342 366V391Q342 437 268 437Q196 437 196 391V366Z" />
<glyph unicode="9" glyph-name="nine" horiz-adv-x="506" d="M324 176V218Q280 203 219 203Q134 203 94 235T54 337V380Q54 530 250 530Q359 530 402 492T446 381V172Q446 70 390 30T205 -10Q132 -10 72 8L84 105Q134 92 196 92Q270 92 297 109T324 176ZM233 303Q280
303 324 319V380Q324 407 307 418T250 430Q209 430 193 419T176 380V343Q176 321 189 312T233 303Z" />
<glyph unicode=":" glyph-name="colon" horiz-adv-x="274" d="M75 0V140H199V0H75ZM75 304V444H199V304H75Z" />
<glyph unicode=";" glyph-name="semicolon" horiz-adv-x="274" d="M75 304V444H199V304H75ZM75 0V140H199V-8L121 -139L65 -108L121 0H75Z" />
<glyph unicode="&lt;" glyph-name="less" horiz-adv-x="586" d="M50 211V277L482 497L520 423L165 244L521 65L482 -10L50 211Z" />
<glyph unicode="=" glyph-name="equal" horiz-adv-x="539" d="M70 302V386H469V302H70ZM70 114V198H469V114H70Z" />
<glyph unicode="&gt;" glyph-name="greater" horiz-adv-x="586" d="M536 277V211L104 -10L65 65L421 244L66 423L104 497L536 277Z" />
<glyph unicode="?" glyph-name="question" horiz-adv-x="477" d="M231 165L167 254L235 300Q273 326 280 337T287 379Q287 413 271 420T197 428Q136 428 78 415L65 513Q140 530 220 530Q326 530 366 498T407 387Q407 327 397 300T342 241L231 165ZM157 0V125H283V0H157Z" />
<glyph unicode="@" glyph-name="at" horiz-adv-x="632" d="M209 233L224 317Q231 357 256 375T336 394Q389 394 439 369L410 204Q422 198 437 198Q516 198 516 303Q516 372 467 416T334 461Q240 461 185 406T130 259Q130 164 187 113T355 61Q425 61 494 84L512
21Q447 -10 352 -10Q205 -10 128 62T50 259Q50 382 127 456T335 530Q457 530 524 464T592 305Q592 227 554 183T444 139Q387 139 355 177Q319 155 274 155Q238 155 221 178T209 233ZM351 232L368 330Q348 336 328 336Q293 336 289 307L277 238Q272 214 297 214Q326
214 351 232Z" />
<glyph unicode="A" glyph-name="A" horiz-adv-x="646" d="M489 0L446 138H199L157 0H25L235 666H411L621 0H489ZM323 562L230 247H414L323 562Z" />
<glyph unicode="B" glyph-name="B" horiz-adv-x="577" d="M355 0H75V666H337Q514 666 514 524V455Q514 414 497 389T440 347Q486 337 511 305T537 224V153Q537 81 491 41T355 0ZM411 169V219Q411 253 395 269T341 286H201V104H330Q374 104 392 118T411 169ZM388
449V508Q388 562 322 562H201V387H321Q388 387 388 449Z" />
<glyph unicode="C" glyph-name="C" horiz-adv-x="523" d="M60 183V483Q60 676 297 676Q392 676 478 654L464 545Q372 562 301 562Q237 562 212 539T186 461V205Q186 151 211 128T301 104Q372 104 464 121L478 12Q392 -10 297 -10Q60 -10 60 183Z" />
<glyph unicode="D" glyph-name="D" horiz-adv-x="604" d="M75 666H323Q438 666 491 616T544 487V179Q544 100 491 50T323 0H75V666ZM201 555V111H310Q371 111 394 134T418 209V457Q418 508 395 531T310 555H201Z" />
<glyph unicode="E" glyph-name="E" horiz-adv-x="538" d="M75 0V666H483V555H201V394H461V283H201V111H483V0H75Z" />
<glyph unicode="F" glyph-name="F" horiz-adv-x="522" d="M201 0H75V666H487V555H201V378H465V267H201V0Z" />
<glyph unicode="G" glyph-name="G" horiz-adv-x="584" d="M186 458V206Q186 155 212 129T302 103Q351 103 405 111V313H524V20Q419 -10 301 -10Q60 -10 60 191V475Q60 578 121 627T313 676Q422 676 504 654L490 544Q406 562 303 562Q239 562 213 537T186 458Z" />
<glyph unicode="H" glyph-name="H" horiz-adv-x="649" d="M574 0H448V281H201V0H75V666H201V392H448V666H574V0Z" />
<glyph unicode="I" glyph-name="I" horiz-adv-x="286" d="M206 666V0H80V666H206Z" />
<glyph unicode="J" glyph-name="J" horiz-adv-x="271" d="M75 666H201V-11Q201 -61 175 -98T65 -206L-10 -121Q51 -62 63 -46T75 0V666Z" />
<glyph unicode="K" glyph-name="K" horiz-adv-x="612" d="M201 666V0H75V666H201ZM568 666L358 337L582 0H437L219 337L425 666H568Z" />
<glyph unicode="L" glyph-name="L" horiz-adv-x="505" d="M201 666V111H475V0H75V666H201Z" />
<glyph unicode="M" glyph-name="M" horiz-adv-x="816" d="M611 431L488 86H328L205 431L194 0H65L95 666H236L408 193L580 666H721L751 0H622L611 431Z" />
<glyph unicode="N" glyph-name="N" horiz-adv-x="694" d="M451 0L198 505V0H75V666H243L496 160V666H619V0H451Z" />
<glyph unicode="O" glyph-name="O" horiz-adv-x="624" d="M564 471V195Q564 103 504 47T312 -10T120 46T60 195V471Q60 563 120 619T312 676T504 620T564 471ZM186 464V202Q186 152 215 127T312 101T409 126T438 202V464Q438 514 409 539T312 565T215 540T186 464Z" />
<glyph unicode="P" glyph-name="P" horiz-adv-x="576" d="M75 0V666H335Q447 666 496 622T546 486V395Q546 306 495 261T329 216H201V0H75ZM420 476Q420 518 400 536T328 555H201V327H328Q380 327 400 346T420 408V476Z" />
<glyph unicode="Q" glyph-name="Q" horiz-adv-x="624" d="M343 -173L273 -8Q162 0 111 55T60 195V471Q60 563 120 619T312 676T504 620T564 471V195Q564 121 526 69T403 -1L456 -126L343 -173ZM186 464V202Q186 152 215 127T312 101T409 126T438 202V464Q438 514
409 539T312 565T215 540T186 464Z" />
<glyph unicode="R" glyph-name="R" horiz-adv-x="650" d="M625 0H474L321 220H201V0H75V666H348Q461 666 510 622T560 486V399Q560 274 460 238L625 0ZM434 476Q434 518 414 536T343 555H201V329H343Q394 329 414 348T434 410V476Z" />
<glyph unicode="S" glyph-name="S" horiz-adv-x="540" d="M490 181Q490 130 481 98T447 39T376 2T256 -10Q201 -10 142 2T48 30L70 129Q171 98 258 98Q324 98 344 114T364 181Q364 213 363 225T348 251T313 270T242 287Q179 301 145 314T91 352T65 407T59 495Q59
589 109 632T283 676Q380 676 477 654L463 548Q371 568 285 568Q223 568 204 553T185 492Q185 459 186 447T201 421T234 403T302 386Q348 375 378 366T430 343T463 318T480 284T488 240T490 181Z" />
<glyph unicode="T" glyph-name="T" horiz-adv-x="548" d="M211 0V555H25V666H523V555H337V0H211Z" />
<glyph unicode="U" glyph-name="U" horiz-adv-x="632" d="M436 666H562V193Q562 104 504 47T316 -10T128 47T70 193V666H196V203Q196 152 224 127T316 101T408 126T436 203V666Z" />
<glyph unicode="V" glyph-name="V" horiz-adv-x="600" d="M300 111L461 666H592L393 0H207L8 666H139L300 111Z" />
<glyph unicode="W" glyph-name="W" horiz-adv-x="944" d="M556 666L677 150L804 666H929L764 0H594L472 536L350 0H180L15 666H140L267 150L388 666H556Z" />
<glyph unicode="X" glyph-name="X" horiz-adv-x="612" d="M378 335L587 0H451L306 236L161 0H25L234 335L33 666H168L306 434L444 666H579L378 335Z" />
<glyph unicode="Y" glyph-name="Y" horiz-adv-x="566" d="M283 330L427 666H561L346 193V0H220V193L5 666H139L283 330Z" />
<glyph unicode="Z" glyph-name="Z" horiz-adv-x="575" d="M512 559L206 107H515V0H65V106L373 559H77V666H512V559Z" />
<glyph unicode="[" glyph-name="bracketleft" horiz-adv-x="328" d="M298 -126H85V790H298V690H207V-26H298V-126Z" />
<glyph unicode="\" glyph-name="backslash" horiz-adv-x="459" d="M294 -117L45 676H156L404 -117H294Z" />
<glyph unicode="]" glyph-name="bracketright" horiz-adv-x="328" d="M243 -126H30V-26H121V690H30V790H243V-126Z" />
<glyph unicode="^" glyph-name="asciicircum" horiz-adv-x="475" d="M119 371L45 416L194 686H279L430 416L354 371L237 584L119 371Z" />
<glyph unicode="_" glyph-name="underscore" horiz-adv-x="439" d="M440 -74H-1V-10H440V-74Z" />
<glyph unicode="`" glyph-name="grave" horiz-adv-x="314" d="M254 607L209 539Q146 574 60 631L108 705Q172 657 254 607Z" />
<glyph unicode="a" glyph-name="a" horiz-adv-x="578" d="M366 520L548 0H424L394 93H184L154 0H30L212 520H366ZM365 190L289 426L213 190H365Z" />
<glyph unicode="b" glyph-name="b" horiz-adv-x="547" d="M352 0H80V520H340Q417 520 450 491T484 404V355Q484 296 423 270Q461 261 482 236T504 172V124Q504 0 352 0ZM384 139V174Q384 215 337 215H204V96H336Q384 96 384 139ZM364 348V391Q364 424 324 424H204V308H318Q364
308 364 348Z" />
<glyph unicode="c" glyph-name="c" horiz-adv-x="491" d="M272 -10Q165 -10 115 31T65 154V366Q65 448 115 489T272 530Q356 530 436 513L426 409Q352 422 276 422Q228 422 209 406T189 351V169Q189 130 208 114T276 98Q352 98 426 111L436 7Q356 -10 272 -10Z" />
<glyph unicode="d" glyph-name="d" horiz-adv-x="566" d="M506 344V176Q506 92 464 46T314 0H80V520H314Q422 520 464 474T506 344ZM204 415V105H307Q348 105 366 121T384 175V345Q384 382 366 398T307 415H204Z" />
<glyph unicode="e" glyph-name="e" horiz-adv-x="505" d="M80 0V520H445V418H204V317H427V214H204V102H445V0H80Z" />
<glyph unicode="f" glyph-name="f" horiz-adv-x="493" d="M204 0H80V520H448V418H204V295H434V192H204V0Z" />
<glyph unicode="g" glyph-name="g" horiz-adv-x="548" d="M189 356V168Q189 129 206 113T279 96Q322 96 362 104V254H478V17Q385 -10 275 -10Q161 -10 113 30T65 151V369Q65 453 115 491T282 530Q373 530 463 512L452 408Q364 423 277 423Q228 423 209 409T189 356Z" />
<glyph unicode="h" glyph-name="h" horiz-adv-x="615" d="M535 0H411V210H204V0H80V520H204V317H411V520H535V0Z" />
<glyph unicode="i" glyph-name="i" horiz-adv-x="294" d="M209 520V0H85V520H209Z" />
<glyph unicode="j" glyph-name="j" horiz-adv-x="276" d="M77 520H201V8Q201 -37 182 -65T77 -173L0 -92Q54 -39 65 -23T77 14V520Z" />
<glyph unicode="k" glyph-name="k" horiz-adv-x="575" d="M529 520L352 266L545 0H402L215 266L392 520H529ZM204 520V0H80V520H204Z" />
<glyph unicode="l" glyph-name="l" horiz-adv-x="468" d="M204 520V107H433V0H80V520H204Z" />
<glyph unicode="m" glyph-name="m" horiz-adv-x="732" d="M542 0L531 313L434 65H298L201 313L190 0H70L99 520H229L366 177L503 520H633L662 0H542Z" />
<glyph unicode="n" glyph-name="n" horiz-adv-x="634" d="M403 0L198 365V0H80V520H231L436 154V520H554V0H403Z" />
<glyph unicode="o" glyph-name="o" horiz-adv-x="576" d="M511 365V155Q511 82 457 36T288 -10T120 36T65 155V365Q65 438 119 484T288 530T456 484T511 365ZM387 351Q387 387 364 405T288 423T212 405T189 351V169Q189 133 212 115T288 97T364 115T387 169V351Z" />
<glyph unicode="p" glyph-name="p" horiz-adv-x="531" d="M311 147H204V0H80V520H317Q416 520 457 484T499 374V294Q499 221 455 184T311 147ZM312 247Q347 247 361 259T376 300V368Q376 395 362 407T312 419H204V247H312Z" />
<glyph unicode="q" glyph-name="q" horiz-adv-x="576" d="M317 -154L251 -8Q156 -1 111 44T65 155V365Q65 438 119 484T288 530T456 484T511 365V155Q511 98 478 57T374 -1L423 -109L317 -154ZM387 351Q387 387 364 405T288 423T212 405T189 351V169Q189 133 212
115T288 97T364 115T387 169V351Z" />
<glyph unicode="r" glyph-name="r" horiz-adv-x="587" d="M416 0L314 152H204V0H80V520H324Q423 520 464 484T506 374V299Q506 254 491 226T437 177L557 0H416ZM321 251Q356 251 370 264T385 306V368Q385 396 371 407T325 419H204V251H321Z" />
<glyph unicode="s" glyph-name="s" horiz-adv-x="499" d="M446 150Q446 65 403 28T240 -10Q136 -10 55 23L75 117Q159 92 241 92Q290 92 306 103T322 145T306 188T215 216Q162 227 131 240T85 274T65 319T60 383Q60 464 107 497T261 530Q359 530 434 509L419 410Q336
428 263 428Q213 428 199 419T184 379Q184 346 198 336T288 309T395 274T437 230T446 150Z" />
<glyph unicode="t" glyph-name="t" horiz-adv-x="502" d="M189 0V413H30V520H472V413H313V0H189Z" />
<glyph unicode="u" glyph-name="u" horiz-adv-x="590" d="M391 520H515V154Q515 83 464 37T295 -10T127 36T75 154V520H199V167Q199 132 221 115T295 97T369 114T391 167V520Z" />
<glyph unicode="v" glyph-name="v" horiz-adv-x="532" d="M519 520L351 0H181L13 520H135L266 106L397 520H519Z" />
<glyph unicode="w" glyph-name="w" horiz-adv-x="826" d="M482 520L586 150L687 520H806L660 0H512L413 383L314 0H166L20 520H139L240 150L344 520H482Z" />
<glyph unicode="x" glyph-name="x" horiz-adv-x="564" d="M30 0L211 263L37 520H169L282 351L395 520H529L353 263L534 0H401L282 173L164 0H30Z" />
<glyph unicode="y" glyph-name="y" horiz-adv-x="514" d="M195 0V149L10 520H136L257 266L378 520H504L319 149V0H195Z" />
<glyph unicode="z" glyph-name="z" horiz-adv-x="540" d="M471 429L216 98H475V0H70V91L326 422H72V520H471V429Z" />
<glyph unicode="{" glyph-name="braceleft" horiz-adv-x="340" d="M65 277H45V371H65Q107 371 107 411V643Q107 717 138 753T237 790H320V692H269Q229 692 229 651V439Q229 387 212 357T147 324Q194 321 211 291T229 209V-3Q229 -44 269 -44H320V-142H237Q169
-142 138 -106T107 5V237Q107 277 65 277Z" />
<glyph unicode="|" glyph-name="bar" horiz-adv-x="255" d="M165 790V-210H90V790H165Z" />
<glyph unicode="}" glyph-name="braceright" horiz-adv-x="340" d="M295 277H275Q233 277 233 237V5Q233 -69 202 -105T103 -142H20V-44H71Q111 -44 111 -3V209Q111 261 128 291T193 324Q146 327 129 357T111 439V651Q111 692 71 692H20V790H103Q171 790 202 754T233
643V411Q233 371 275 371H295V277Z" />
<glyph unicode="~" glyph-name="asciitilde" d="M383 354L452 316Q433 259 402 226T317 193Q284 193 234 226T169 259Q160 259 152 256T140 251T129 239T121 227T113 210T104 192L35 230Q61 297 85 325T162 353Q191 353 243 320T317 286Q359 286 383 354Z" />
</font>
</defs>
</svg>
