<?xml version="1.0" standalone="no"?> <!DOCTYPE svg PUBLIC "-//W3C//DTD SVG 1.0//EN" "http://www.w3.org/TR/2001/REC-SVG-20010904/DTD/svg10.dtd" > <svg xmlns="http://www.w3.org/2000/svg" width="100%" height="100%">
<defs >
<font id="klavikaboldbold1" horiz-adv-x="421" ><font-face
    font-family="Klavika Bold"
    units-per-em="1000"
    panose-1="2 0 8 6 4 0 0 2 0 4"
    ascent="750"
    descent="-170"
    alphabetic="0" />
<missing-glyph horiz-adv-x="616" d="M75 0V666H541V0H75ZM492 616H152L492 89V616ZM124 576V49H463L124 576Z" />
<glyph unicode=" " glyph-name="space" horiz-adv-x="210" />
<glyph unicode="!" glyph-name="exclam" horiz-adv-x="284" d="M184 231H100L70 405V686H214V405L184 231ZM214 0H70V166H214V0Z" />
<glyph unicode="&quot;" glyph-name="quotedbl" horiz-adv-x="379" d="M50 438V686H149V438H50ZM230 438V686H329V438H230Z" />
<glyph unicode="#" glyph-name="numbersign" horiz-adv-x="525" d="M305 0L316 159H206L194 0H105L117 159H42L48 244H123L135 405H60L66 490H141L152 646H241L230 490H340L350 646H439L429 490H502L496 405H423L411 244H483L477 159H405L394 0H305ZM224 405L212
244H322L334 405H224Z" />
<glyph unicode="$" glyph-name="dollar" horiz-adv-x="525" d="M205 -121V-8Q121 -1 59 22L85 139Q171 114 244 114Q295 114 310 128T325 186T311 242T232 269Q126 290 96 329T65 470Q65 559 101 602T231 654V769H346V653Q409 648 457 636L442 513Q366 530 279
530Q236 530 223 518T209 467Q209 426 222 415T305 386Q347 375 373 367T419 345T448 321T462 287T468 245T469 187Q469 95 439 50T320 -6V-121H205Z" />
<glyph unicode="%" glyph-name="percent" horiz-adv-x="872" d="M356 457Q356 388 320 350T196 312Q107 312 71 350T35 457V531Q35 600 71 638T196 676Q284 676 320 638T356 531V457ZM245 539Q245 562 235 571T196 580T157 571T146 539V449Q146 426 157 417T196
408T234 417T245 449V539ZM253 26L521 676L609 641L341 -10L253 26ZM832 135Q832 66 796 28T672 -10Q583 -10 547 28T511 135V209Q511 278 547 316T672 354Q760 354 796 316T832 209V135ZM721 217Q721 240 711 249T672 258T633 249T622 217V127Q622 104 633 95T672
86T710 95T721 127V217Z" />
<glyph unicode="&amp;" glyph-name="ampersand" horiz-adv-x="646" d="M616 392V271H519V26Q407 -10 272 -10Q162 -10 111 35T60 156V210Q60 311 137 344Q71 379 71 467V509Q71 676 283 676Q398 676 500 652L482 536Q389 555 283 555Q215 555 215 502V453Q215
392 273 392H616ZM204 210V173Q204 141 223 125T277 108Q336 108 383 119V271H283Q204 271 204 210Z" />
<glyph unicode="&apos;" glyph-name="quotesingle" horiz-adv-x="199" d="M50 438V686H149V438H50Z" />
<glyph unicode="(" glyph-name="parenleft" horiz-adv-x="326" d="M316 -94L210 -154Q55 38 55 304T210 762L316 702Q257 604 228 513T199 304T228 95T316 -94Z" />
<glyph unicode=")" glyph-name="parenright" horiz-adv-x="326" d="M116 -154L10 -94Q69 4 98 95T127 304T98 513T10 702L116 762Q271 570 271 304T116 -154Z" />
<glyph unicode="*" glyph-name="asterisk" horiz-adv-x="467" d="M100 370L170 479H40V546H172L100 659L156 696L233 576L310 696L366 659L293 546H427V479H296L366 370L309 334L233 452L157 334L100 370Z" />
<glyph unicode="+" glyph-name="plus" horiz-adv-x="525" d="M456 188H320V50H205V188H69V298H205V437H320V298H456V188Z" />
<glyph unicode="," glyph-name="comma" horiz-adv-x="273" d="M208 -10L120 -149L55 -112L112 0H64V166H208V-10Z" />
<glyph unicode="-" glyph-name="hyphen" horiz-adv-x="338" d="M298 220H40V340H298V220Z" />
<glyph unicode="." glyph-name="period" horiz-adv-x="274" d="M209 0H65V166H209V0Z" />
<glyph unicode="/" glyph-name="slash" horiz-adv-x="462" d="M422 676L173 -117H45L294 676H422Z" />
<glyph unicode="0" glyph-name="zero" horiz-adv-x="525" d="M484 479V167Q484 -10 263 -10T42 167V479Q42 656 263 656T484 479ZM186 459V187Q186 148 201 132T263 116T324 132T340 187V459Q340 498 325 514T263 530T202 514T186 459Z" />
<glyph unicode="1" glyph-name="one" horiz-adv-x="525" d="M83 0V122H202V506L89 477L60 599L216 646H346V122H467V0H83Z" />
<glyph unicode="2" glyph-name="two" horiz-adv-x="525" d="M369 250Q300 167 262 126H467V0H63V123Q161 224 208 277Q288 369 300 387Q317 415 317 463V481Q317 507 299 517T238 528Q147 528 73 509L54 630Q155 656 245 656Q360 656 410 619T461 499V473Q461
398 448 364T369 250Z" />
<glyph unicode="3" glyph-name="three" horiz-adv-x="525" d="M107 385H218Q265 385 282 399T300 447V488Q300 519 284 529T219 539Q159 539 81 525L66 638Q151 656 232 656Q352 656 398 621T444 506V459Q444 367 377 326Q419 307 437 279T456 203V152Q456 72
407 31T228 -10Q131 -10 64 12L79 123Q150 110 223 110Q275 110 293 121T312 163V209Q312 262 239 262H107V385Z" />
<glyph unicode="4" glyph-name="four" horiz-adv-x="525" d="M505 137H439V0H297V137H33V262L234 646H439V254H505V137ZM297 254V524L162 254H297Z" />
<glyph unicode="5" glyph-name="five" horiz-adv-x="525" d="M316 203Q316 237 302 249T240 263Q151 267 81 268V646H446V521H225V385Q257 384 315 381Q396 376 428 340T460 239V168Q459 107 442 71T374 12T235 -10Q138 -10 57 15L78 131Q151 115 234 115Q283
115 299 129T316 176V203Z" />
<glyph unicode="6" glyph-name="six" horiz-adv-x="525" d="M267 -10Q147 -10 102 41T56 183V427Q56 555 134 605T363 656Q411 656 461 648L450 530Q412 535 383 535Q283 535 242 512T200 428V379Q249 394 310 394Q396 394 437 354T479 226V183Q479 96 433 43T267
-10ZM267 114Q305 114 320 128T335 176V220Q335 270 286 270Q239 270 200 252V176Q200 141 214 128T267 114Z" />
<glyph unicode="7" glyph-name="seven" horiz-adv-x="525" d="M488 524L243 0H95L338 519H61V646H488V524Z" />
<glyph unicode="8" glyph-name="eight" horiz-adv-x="525" d="M45 211Q45 249 63 276T129 329Q61 373 61 441V497Q61 576 107 616T262 656T416 616T463 497V441Q463 404 448 379T395 329Q442 304 460 277T479 211V160Q479 68 430 29T262 -10T94 29T45 160V211ZM184
162Q184 131 200 120T262 108Q306 108 323 120T340 162V195Q340 222 327 235T260 269Q207 249 196 236T184 195V162ZM200 443Q200 419 211 408T264 381Q306 396 315 407T324 443V491Q324 517 311 528T262 539T213 528T200 491V443Z" />
<glyph unicode="9" glyph-name="nine" horiz-adv-x="525" d="M258 656Q378 656 423 605T469 463V219Q469 91 391 41T162 -10Q114 -10 64 -2L72 117Q114 111 142 111Q242 111 283 134T325 218V267Q276 252 215 252Q129 252 88 292T46 420V463Q46 550 92 603T258
656ZM258 532Q220 532 205 518T190 470V426Q190 376 239 376Q286 376 325 394V470Q325 505 311 518T258 532Z" />
<glyph unicode=":" glyph-name="colon" horiz-adv-x="274" d="M209 0H65V166H209V0ZM209 291H65V457H209V291Z" />
<glyph unicode=";" glyph-name="semicolon" horiz-adv-x="273" d="M208 291H64V457H208V291ZM208 -10L120 -149L55 -112L112 0H64V166H208V-10Z" />
<glyph unicode="&lt;" glyph-name="less" horiz-adv-x="525" d="M421 -10L48 207V281L421 497L466 414L162 244L469 73L421 -10Z" />
<glyph unicode="=" glyph-name="equal" horiz-adv-x="525" d="M440 300H85V396H440V300ZM440 106H85V202H440V106Z" />
<glyph unicode="&gt;" glyph-name="greater" horiz-adv-x="525" d="M477 207L104 -10L56 73L363 244L59 414L104 497L477 281V207Z" />
<glyph unicode="?" glyph-name="question" horiz-adv-x="485" d="M296 0H152V166H296V0ZM243 228L162 338Q255 407 275 432T296 498Q296 534 276 551T202 568Q144 568 55 552L35 676Q134 696 218 696Q345 696 392 649T440 506Q440 440 429 407T380 337T243 228Z" />
<glyph unicode="@" glyph-name="at" horiz-adv-x="722" d="M536 100L562 23Q492 -10 397 -10Q237 -10 139 86T40 333Q40 482 131 579T373 676Q515 676 598 597T682 402Q682 310 634 246T492 181Q457 181 430 196T392 237Q352 210 292 210Q221 210 221 285Q221
300 224 318L239 391Q258 499 369 499Q433 499 507 466L465 268Q476 259 499 259Q544 259 568 300T592 400Q592 481 536 537T373 593Q265 593 199 520T133 333Q133 215 207 146T394 76Q461 76 536 100ZM394 309L419 415Q395 425 361 425Q331 425 324 392L308 321Q301
288 334 288Q360 288 394 309Z" />
<glyph unicode="A" glyph-name="A" horiz-adv-x="627" d="M413 666L617 0H461L425 130H202L166 0H10L213 666H413ZM313 534L236 255H389L313 534Z" />
<glyph unicode="B" glyph-name="B" horiz-adv-x="572" d="M542 159Q542 86 494 43T349 0H65V666H328Q518 666 518 520V452Q518 379 444 347Q486 337 514 303T542 224V159ZM368 440V498Q368 545 308 545H215V393H308Q337 393 352 406T368 440ZM392 179V220Q392
276 329 276H215V121H308Q348 121 370 133T392 179Z" />
<glyph unicode="C" glyph-name="C" horiz-adv-x="521" d="M200 448V218Q200 171 220 149T293 126Q372 126 465 142L486 11Q387 -10 293 -10Q171 -10 111 44T50 194V472Q50 567 110 621T293 676Q387 676 486 655L465 524Q372 540 293 540Q240 540 220 518T200 448Z" />
<glyph unicode="D" glyph-name="D" horiz-adv-x="598" d="M548 173Q548 99 493 50T323 0H65V666H323Q438 666 493 617T548 493V173ZM398 214V452Q398 494 378 513T305 533H215V133H305Q358 133 378 152T398 214Z" />
<glyph unicode="E" glyph-name="E" horiz-adv-x="534" d="M484 0H65V666H484V533H215V411H463V278H215V133H484V0Z" />
<glyph unicode="F" glyph-name="F" horiz-adv-x="518" d="M215 0H65V666H488V533H215V391H467V258H215V0Z" />
<glyph unicode="G" glyph-name="G" horiz-adv-x="584" d="M524 22Q413 -10 294 -10Q176 -10 113 45T50 194V472Q50 567 112 621T294 676Q398 676 507 655L489 524Q386 540 294 540Q241 540 221 516T200 449V220Q200 125 294 125Q336 125 383 131V335H524V22Z" />
<glyph unicode="H" glyph-name="H" horiz-adv-x="645" d="M580 0H430V268H215V0H65V666H215V401H430V666H580V0Z" />
<glyph unicode="I" glyph-name="I" horiz-adv-x="290" d="M220 0H70V666H220V0Z" />
<glyph unicode="J" glyph-name="J" horiz-adv-x="275" d="M73 -211L-16 -105Q38 -61 51 -44T65 0V666H215V-23Q215 -68 180 -111T73 -211Z" />
<glyph unicode="K" glyph-name="K" horiz-adv-x="617" d="M65 0V666H215V0H65ZM428 0L234 340L414 666H583L396 340L597 0H428Z" />
<glyph unicode="L" glyph-name="L" horiz-adv-x="499" d="M479 0H65V666H215V133H479V0Z" />
<glyph unicode="M" glyph-name="M" horiz-adv-x="786" d="M326 86L210 370L200 0H55L83 666H233L393 242L553 666H703L731 0H586L576 370L460 86H326Z" />
<glyph unicode="N" glyph-name="N" horiz-adv-x="676" d="M426 0L208 438V0H65V666H249L468 207V666H611V0H426Z" />
<glyph unicode="O" glyph-name="O" horiz-adv-x="616" d="M566 472V194Q566 109 503 50T308 -10T114 49T50 194V472Q50 557 113 616T308 676T502 617T566 472ZM416 207V459Q416 543 308 543T200 459V207Q200 123 308 123T416 207Z" />
<glyph unicode="P" glyph-name="P" horiz-adv-x="584" d="M559 390Q559 295 504 249T329 202H215V0H65V666H337Q456 666 507 620T559 477V390ZM409 405V463Q409 500 392 516T329 533H215V332H329Q376 332 392 349T409 405Z" />
<glyph unicode="Q" glyph-name="Q" horiz-adv-x="616" d="M335 -176L264 -8Q155 2 103 59T50 194V472Q50 557 113 616T308 676T502 617T566 472V194Q566 131 530 80T418 5L471 -119L335 -176ZM416 207V459Q416 543 308 543T200 459V207Q200 123 308 123T416 207Z" />
<glyph unicode="R" glyph-name="R" horiz-adv-x="643" d="M450 0L303 207H215V0H65V666H342Q461 666 512 620T564 477V395Q564 269 467 228L628 0H450ZM414 410V463Q414 501 397 517T334 533H215V337H334Q380 337 397 354T414 410Z" />
<glyph unicode="S" glyph-name="S" horiz-adv-x="544" d="M504 187Q504 117 486 77T413 13T260 -10Q139 -10 45 33L70 149Q173 117 262 117Q319 117 336 131T354 188Q354 214 353 224T339 246T306 263T242 279Q122 305 90 343T57 490Q57 593 105 634T287 676Q387
676 489 654L474 528Q363 547 289 547Q239 547 223 535T207 486Q207 438 221 427T315 396Q361 385 391 375T444 351T477 325T495 290T502 246T504 187Z" />
<glyph unicode="T" glyph-name="T" horiz-adv-x="532" d="M520 533H341V0H191V533H12V666H520V533Z" />
<glyph unicode="U" glyph-name="U" horiz-adv-x="622" d="M412 666H562V194Q562 108 502 49T311 -10T121 49T60 194V666H210V208Q210 166 233 145T311 123T388 144T412 208V666Z" />
<glyph unicode="V" glyph-name="V" horiz-adv-x="590" d="M590 666L402 0H188L0 666H154L295 136L436 666H590Z" />
<glyph unicode="W" glyph-name="W" horiz-adv-x="944" d="M939 666L776 0H585L473 506L360 0H169L5 666H153L266 190L382 666H565L679 190L791 666H939Z" />
<glyph unicode="X" glyph-name="X" horiz-adv-x="612" d="M585 666L390 338L592 0H435L306 220L177 0H20L221 338L27 666H184L306 456L428 666H585Z" />
<glyph unicode="Y" glyph-name="Y" horiz-adv-x="564" d="M564 666L357 192V0H207V192L0 666H157L282 357L407 666H564Z" />
<glyph unicode="Z" glyph-name="Z" horiz-adv-x="566" d="M511 543L221 123H516V0H50V122L343 543H63V666H511V543Z" />
<glyph unicode="[" glyph-name="bracketleft" horiz-adv-x="319" d="M299 -126H75V790H299V675H219V-11H299V-126Z" />
<glyph unicode="\" glyph-name="backslash" horiz-adv-x="462" d="M289 -117L40 676H168L417 -117H289Z" />
<glyph unicode="]" glyph-name="bracketright" horiz-adv-x="319" d="M244 -126H20V-11H100V675H20V790H244V-126Z" />
<glyph unicode="^" glyph-name="asciicircum" horiz-adv-x="466" d="M431 419L345 367L232 568L119 367L35 419L186 686H278L431 419Z" />
<glyph unicode="_" glyph-name="underscore" horiz-adv-x="444" d="M445 -86H-1V-10H445V-86Z" />
<glyph unicode="`" glyph-name="grave" horiz-adv-x="310" d="M260 613L210 537Q140 576 55 631L109 715Q172 669 260 613Z" />
<glyph unicode="a" glyph-name="a" horiz-adv-x="499" d="M444 0H326L316 31Q242 -10 177 -10Q113 -10 82 31T50 138Q50 211 84 243T195 275H300V312Q300 352 285 365T214 379Q154 379 82 365L63 473Q142 497 238 497Q361 497 402 457T444 311V0ZM300 119V175H231Q207
175 198 168T188 140T197 111T227 102Q263 102 300 119Z" />
<glyph unicode="b" glyph-name="b" horiz-adv-x="537" d="M497 195Q497 147 489 114T456 50T384 5T263 -10Q162 -10 65 6V686L209 706V470Q279 497 347 497Q497 497 497 321V195ZM209 345V117Q230 115 268 115Q318 115 335 135T353 194V320Q353 372 301 372Q261
372 209 345Z" />
<glyph unicode="c" glyph-name="c" horiz-adv-x="406" d="M179 301V186Q179 148 197 131T258 113Q306 113 358 125L376 5Q309 -10 258 -10Q140 -10 88 37T35 188V299Q35 403 87 450T258 497Q309 497 376 482L358 362Q307 374 258 374Q215 374 197 357T179 301Z" />
<glyph unicode="d" glyph-name="d" horiz-adv-x="537" d="M40 170V317Q40 497 204 497Q270 497 328 483V686L472 706V0H359L344 39Q268 -10 194 -10Q119 -10 80 35T40 170ZM328 153V360Q278 372 236 372Q184 372 184 317V170Q184 115 236 115Q284 115 328 153Z" />
<glyph unicode="e" glyph-name="e" horiz-adv-x="486" d="M446 193H184V179Q184 138 203 123T272 108Q351 108 420 129L441 21Q356 -10 258 -10Q40 -10 40 188V302Q40 497 249 497Q307 497 347 481T408 435T437 372T446 295V193ZM310 301V322Q310 351 298 367T250
384Q184 384 184 322V301H310Z" />
<glyph unicode="f" glyph-name="f" horiz-adv-x="369" d="M369 692L351 579Q316 586 287 586Q255 586 247 574T238 534V477H353L343 359H238V0H94V359H20V477H94V550Q94 627 133 666T259 706Q301 706 369 692Z" />
<glyph unicode="g" glyph-name="g" horiz-adv-x="484" d="M35 279V338Q38 497 234 497Q277 497 317 487H469V419L420 401Q431 374 433 338V279Q433 207 383 166T234 124H219Q198 111 198 97Q198 79 214 77Q293 69 335 65Q398 60 425 34T453 -54Q453 -139 400 -173T229
-207Q129 -207 35 -182L56 -77Q139 -97 216 -97Q277 -97 299 -91T321 -62Q321 -48 313 -43T283 -35Q239 -31 159 -23Q104 -17 80 0T55 65T97 154Q35 191 35 279ZM199 238T234 238T284 249T299 286V332Q299 383 234 383T169 332V286Q169 261 184 250Z" />
<glyph unicode="h" glyph-name="h" horiz-adv-x="553" d="M493 0H349V322Q349 357 314 357T209 321V0H65V686L207 706V452Q305 497 381 497Q493 497 493 341V0Z" />
<glyph unicode="i" glyph-name="i" horiz-adv-x="274" d="M209 548H65V701H209V548ZM209 0H65V487H209V0Z" />
<glyph unicode="j" glyph-name="j" horiz-adv-x="264" d="M204 548H60V701H204V548ZM72 -207L-15 -113Q-12 -110 -2 -101T10 -90T21 -80T31 -69T39 -59T47 -49T52 -39T57 -28T59 -17T60 -4V487H204V-23Q204 -65 173 -107T72 -207Z" />
<glyph unicode="k" glyph-name="k" horiz-adv-x="527" d="M209 0H65V686L209 706V0ZM228 245L352 487H506L378 245L512 0H358L228 245Z" />
<glyph unicode="l" glyph-name="l" horiz-adv-x="274" d="M209 0H65V686L209 706V0Z" />
<glyph unicode="m" glyph-name="m" horiz-adv-x="837" d="M493 0H349V322Q349 357 314 357Q273 357 209 322V0H65V487H172L187 450Q284 497 381 497Q443 497 470 450Q566 497 665 497Q777 497 777 341V0H633V322Q633 357 598 357Q557 357 493 322V0Z" />
<glyph unicode="n" glyph-name="n" horiz-adv-x="553" d="M493 0H349V322Q349 357 314 357Q273 357 209 322V0H65V487H172L187 450Q284 497 381 497Q493 497 493 341V0Z" />
<glyph unicode="o" glyph-name="o" horiz-adv-x="520" d="M379 -10T260 -10T91 45T40 187V300Q40 386 90 441T260 497T429 442T480 300V187Q480 101 430 46ZM184 111T260 111T336 183V304Q336 376 260 376T184 304V183Q184 111 260 111Z" />
<glyph unicode="p" glyph-name="p" horiz-adv-x="537" d="M497 317V170Q497 -10 333 -10Q267 -10 209 4V-197L65 -217V487H178L193 448Q269 497 343 497Q418 497 457 452T497 317ZM209 334V127Q259 115 301 115Q353 115 353 170V317Q353 372 301 372Q253 372 209 334Z" />
<glyph unicode="q" glyph-name="q" horiz-adv-x="537" d="M40 292Q40 340 48 373T81 437T153 482T274 497Q370 497 472 480V-197L328 -217V17Q258 -10 190 -10Q40 -10 40 166V292ZM328 142V370Q307 372 269 372Q219 372 202 352T184 293V167Q184 115 236 115Q276
115 328 142Z" />
<glyph unicode="r" glyph-name="r" horiz-adv-x="345" d="M338 361Q250 326 209 297V0H65V487H185L195 440Q219 456 258 473T326 497L338 361Z" />
<glyph unicode="s" glyph-name="s" horiz-adv-x="433" d="M398 145Q398 66 358 28T217 -10Q127 -10 40 19L63 126Q136 104 210 104Q241 104 250 113T260 145Q260 169 249 177T181 199Q97 220 75 249T52 351Q52 431 91 464T238 497Q323 497 386 481L373 369Q298
383 239 383Q209 383 198 375T187 350Q187 327 196 320T249 303Q302 291 331 280T375 248T394 207T398 145Z" />
<glyph unicode="t" glyph-name="t" horiz-adv-x="360" d="M332 8Q280 -10 228 -10Q81 -10 81 115V371H15V487H81V604L225 624V487H336L328 371H225V135Q225 108 255 108Q288 108 315 117L332 8Z" />
<glyph unicode="u" glyph-name="u" horiz-adv-x="553" d="M60 487H204V165Q204 130 239 130Q280 130 344 165V487H488V0H381L366 37Q269 -10 172 -10Q60 -10 60 146V487Z" />
<glyph unicode="v" glyph-name="v" horiz-adv-x="500" d="M495 487L342 0H158L5 487H151L250 142L349 487H495Z" />
<glyph unicode="w" glyph-name="w" horiz-adv-x="705" d="M447 0L352 318L258 0H102L18 487H150L196 202L281 487H425L509 202L555 487H687L603 0H447Z" />
<glyph unicode="x" glyph-name="x" horiz-adv-x="492" d="M473 487L322 245L477 0H332L246 135L160 0H15L170 245L19 487H161L246 354L331 487H473Z" />
<glyph unicode="y" glyph-name="y" horiz-adv-x="495" d="M280 -197H144L201 0H155L5 487H151L250 142L349 487H495L342 0L280 -197Z" />
<glyph unicode="z" glyph-name="z" horiz-adv-x="460" d="M46 377V487H414V377L212 110H420V0H45V110L246 377H46Z" />
<glyph unicode="{" glyph-name="braceleft" horiz-adv-x="340" d="M40 324V378H66Q102 378 102 412V641Q102 790 243 790H330V676H286Q246 676 246 634V429Q246 327 151 324Q246 321 246 219V14Q246 -28 286 -28H330V-142H243Q102 -142 102 7V236Q102 270 66 270H40V324Z" />
<glyph unicode="|" glyph-name="bar" horiz-adv-x="260" d="M180 -210H80V790H180V-210Z" />
<glyph unicode="}" glyph-name="braceright" horiz-adv-x="340" d="M300 378V324V270H274Q238 270 238 236V7Q238 -142 97 -142H10V-28H54Q94 -28 94 14V219Q94 321 189 324Q94 327 94 429V634Q94 676 54 676H10V790H97Q238 790 238 641V412Q238 378 274 378H300Z" />
<glyph unicode="~" glyph-name="asciitilde" horiz-adv-x="461" d="M305 187Q277 187 249 202T199 233T166 249Q129 249 103 187L25 232Q74 358 166 358Q192 358 240 327T305 296Q327 296 343 315T368 358L446 313Q403 187 305 187Z" />
</font>
</defs>
</svg>
