<?xml version="1.0" standalone="no"?> <!DOCTYPE svg PUBLIC "-//W3C//DTD SVG 1.0//EN" "http://www.w3.org/TR/2001/REC-SVG-20010904/DTD/svg10.dtd" > <svg xmlns="http://www.w3.org/2000/svg" width="100%" height="100%">
<defs >
<font id="klavikaregular-osf" horiz-adv-x="411" ><font-face
    font-family="Klavika Regular"
    units-per-em="1000"
    panose-1="2 0 5 6 4 0 0 2 0 4"
    ascent="750"
    descent="-170"
    alphabetic="0" />
<missing-glyph horiz-adv-x="656" d="M95 0V666H561V0H95ZM512 616H172L512 89V616ZM144 576V49H483L144 576Z" />
<glyph unicode=" " glyph-name="space" horiz-adv-x="215" />
<glyph unicode="!" glyph-name="exclam" horiz-adv-x="266" d="M159 190H107L91 360V686H175V360L159 190ZM90 0V115H176V0H90Z" />
<glyph unicode="&quot;" glyph-name="quotedbl" horiz-adv-x="375" d="M139 441H70V686H139V441ZM305 441H236V686H305V441Z" />
<glyph unicode="#" glyph-name="numbersign" horiz-adv-x="631" d="M376 0L383 119H221L214 0H147L154 119H50L53 181H158L167 332H62L66 394H171L178 510H245L238 394H400L407 510H474L467 394H576L572 332H463L454 181H563L559 119H450L443 0H376ZM234 332L225
181H387L396 332H234Z" />
<glyph unicode="$" glyph-name="dollar" horiz-adv-x="476" d="M194 -105V-8Q120 -3 60 19L71 85Q153 62 231 62Q295 62 312 76T330 135Q330 160 329 170T317 191T286 208T225 219Q170 227 139 237T92 269T71 313T67 381Q67 452 99 483T211 519V615H285V519Q350
516 407 500L399 431Q328 448 250 448Q186 448 169 437T151 380Q151 330 164 318T251 293Q358 275 386 248T414 140Q414 67 385 32T268 -9V-105H194Z" />
<glyph unicode="%" glyph-name="percent" horiz-adv-x="738" d="M229 16L459 520L515 495L284 -10L229 16ZM310 408V343Q310 231 180 231T50 343V408Q50 520 180 520T310 408ZM114 410V341Q114 313 129 300T180 287T230 300T246 341V410Q246 438 231 451T180 464T130
451T114 410ZM693 167V102Q693 -10 563 -10T433 102V167Q433 279 563 279T693 167ZM497 169V100Q497 72 512 59T563 46T613 59T629 100V169Q629 197 614 210T563 223T513 210T497 169Z" />
<glyph unicode="&amp;" glyph-name="ampersand" horiz-adv-x="616" d="M586 298H488V18Q388 -10 284 -10Q173 -10 124 29T75 150V211Q75 315 163 339Q89 369 89 457V526Q89 601 135 638T289 676Q384 676 472 658L464 589Q376 603 290 603Q224 603 199 584T173
516V449Q173 370 263 370H586V298ZM284 63Q352 63 408 75V298H266Q209 298 184 277T159 207V159Q159 106 186 85T284 63Z" />
<glyph unicode="&apos;" glyph-name="quotesingle" horiz-adv-x="209" d="M139 441H70V686H139V441Z" />
<glyph unicode="(" glyph-name="parenleft" horiz-adv-x="304" d="M224 762L284 722Q214 613 184 515T154 304T184 94T284 -114L224 -154Q70 53 70 304T224 762Z" />
<glyph unicode=")" glyph-name="parenright" horiz-adv-x="304" d="M20 722L80 762Q234 555 234 304T80 -154L20 -114Q90 -5 120 93T150 304T120 514T20 722Z" />
<glyph unicode="*" glyph-name="asterisk" horiz-adv-x="473" d="M115 383L193 503H50V550H195L116 672L154 697L236 570L318 697L356 672L277 550H423V503H279L357 383L318 359L236 486L154 359L115 383Z" />
<glyph unicode="+" glyph-name="plus" horiz-adv-x="526" d="M60 208V278H226V447H300V278H466V208H300V39H226V208H60Z" />
<glyph unicode="," glyph-name="comma" horiz-adv-x="254" d="M83 0V115H169V0L109 -120L70 -101L112 0H83Z" />
<glyph unicode="-" glyph-name="hyphen" horiz-adv-x="370" d="M60 244V313H310V244H60Z" />
<glyph unicode="." glyph-name="period" horiz-adv-x="256" d="M85 0V115H171V0H85Z" />
<glyph unicode="/" glyph-name="slash" horiz-adv-x="446" d="M386 676L139 -117H60L306 676H386Z" />
<glyph unicode="0" glyph-name="zero" horiz-adv-x="544" d="M479 347V163Q479 83 430 37T272 -10T115 36T65 163V347Q65 427 114 473T272 520T429 474T479 347ZM395 339Q395 395 368 420T272 446T176 421T149 339V171Q149 115 176 90T272 64T368 89T395 171V339Z" />
<glyph unicode="1" glyph-name="one" horiz-adv-x="346" d="M177 415L47 342L10 409L185 510H261V0H177V415Z" />
<glyph unicode="2" glyph-name="two" horiz-adv-x="493" d="M60 0V66L228 212Q297 271 314 296T332 353V361Q332 410 310 428T217 446Q155 446 76 424L62 493Q143 520 224 520Q334 520 375 484T416 368V358Q416 307 397 274T307 177L186 72H428V0H60Z" />
<glyph unicode="3" glyph-name="three" horiz-adv-x="469" d="M52 -131L60 -61Q129 -72 192 -72Q263 -72 291 -53T320 14V61Q320 151 205 151H79V225H194Q257 225 282 248T308 316V366Q308 411 284 428T200 446Q129 446 68 435L59 506Q118 520 202 520Q305 520
348 485T392 378V319Q392 272 374 242T308 191Q404 166 404 67V6Q404 -73 354 -109T192 -146Q115 -146 52 -131Z" />
<glyph unicode="4" glyph-name="four" horiz-adv-x="562" d="M532 43H430V-126H347V43H40V123L319 510H430V112H532V43ZM123 112H347V425L123 112Z" />
<glyph unicode="5" glyph-name="five" horiz-adv-x="485" d="M84 159V510H422V436H168V228Q172 228 206 226T278 222Q430 212 430 74V18Q430 -66 384 -106T224 -146Q140 -146 65 -126L74 -57Q144 -72 224 -72Q295 -72 320 -52T346 23V58Q346 107 327 126T248 150Q136
157 84 159Z" />
<glyph unicode="6" glyph-name="six" horiz-adv-x="527" d="M163 429V344Q226 367 296 367Q389 367 428 329T467 208V179Q467 83 428 37T275 -10Q80 -10 80 144V430Q80 554 140 605T342 656Q404 656 452 644L443 574Q400 583 355 583Q240 583 202 552T163 429ZM288
294Q227 294 163 267V156Q163 104 189 84T275 64Q338 64 361 84T384 156V208Q384 255 363 274T288 294Z" />
<glyph unicode="7" glyph-name="seven" horiz-adv-x="452" d="M30 435V510H420V439L144 -136L75 -103L334 435H30Z" />
<glyph unicode="8" glyph-name="eight" horiz-adv-x="554" d="M467 473Q467 424 445 391T363 330Q430 299 457 265T484 178V149Q484 65 436 28T277 -10Q166 -10 118 27T70 149V178Q70 230 96 264T188 330Q130 358 109 390T87 473V499Q87 656 277 656T467 499V473ZM402
175Q402 217 378 238T277 292Q200 261 176 239T152 175V152Q152 101 179 82T277 62Q346 62 374 81T402 152V175ZM169 471Q169 433 190 412T277 364Q342 390 363 411T385 471V503Q385 544 361 564T277 585T193 565T169 503V471Z" />
<glyph unicode="9" glyph-name="nine" horiz-adv-x="522" d="M364 81V166Q301 143 231 143Q138 143 99 181T60 302V331Q60 427 100 473T252 520Q447 520 447 363V80Q447 -44 387 -95T185 -146Q123 -146 75 -134L83 -64Q126 -73 172 -73Q287 -73 325 -42T364 81ZM239
216Q300 216 364 243V354Q364 406 338 426T252 446Q189 446 166 426T143 354V302Q143 255 164 236T239 216Z" />
<glyph unicode=":" glyph-name="colon" horiz-adv-x="256" d="M85 306V421H171V306H85ZM85 0V115H171V0H85Z" />
<glyph unicode=";" glyph-name="semicolon" horiz-adv-x="254" d="M83 0V115H169V0L109 -120L70 -101L112 0H83ZM83 306V421H169V306H83Z" />
<glyph unicode="&lt;" glyph-name="less" horiz-adv-x="558" d="M50 270L463 498L493 443L128 244L493 45L463 -10L50 218V270Z" />
<glyph unicode="=" glyph-name="equal" horiz-adv-x="509" d="M70 299V361H439V299H70ZM70 121V183H439V121H70Z" />
<glyph unicode="&gt;" glyph-name="greater" horiz-adv-x="558" d="M95 498L508 270V218L95 -10L65 45L430 244L65 443L95 498Z" />
<glyph unicode="?" glyph-name="question" horiz-adv-x="476" d="M200 224L152 288Q165 298 202 325T263 372Q308 408 317 430T327 512Q327 578 307 599T211 621Q130 621 66 606L55 678Q123 696 217 696Q333 696 372 655T411 516Q411 432 397 398T321 316L200
224ZM151 0V115H237V0H151Z" />
<glyph unicode="@" glyph-name="at" horiz-adv-x="744" d="M420 284L446 433Q411 444 382 444Q336 444 329 403L310 295Q306 276 313 269T343 261Q387 261 420 284ZM251 289L271 404Q280 453 308 473T391 494Q447 494 510 466L473 256Q489 250 512 250Q572 250
599 292T627 399Q627 500 564 559T386 619Q273 619 199 540T124 333Q124 201 199 124T417 47Q502 47 595 85L613 35Q530 -10 415 -10Q246 -10 153 83T60 333Q60 484 150 580T386 676T610 602T689 401Q689 311 643 255T510 199Q448 199 425 235Q374 207 322 207Q281
207 263 229T251 289Z" />
<glyph unicode="A" glyph-name="A" horiz-adv-x="622" d="M369 666L594 0H507L452 160H169L115 0H28L253 666H369ZM430 235L311 604L192 235H430Z" />
<glyph unicode="B" glyph-name="B" horiz-adv-x="571" d="M356 0H85V666H342Q499 666 499 531V454Q499 371 423 343Q468 335 494 305T521 223V143Q521 74 477 37T356 0ZM435 150V220Q435 302 339 302H171V74H344Q435 74 435 150ZM413 454V529Q413 592 337 592H171V376H323Q413
376 413 454Z" />
<glyph unicode="C" glyph-name="C" horiz-adv-x="516" d="M156 475V191Q156 121 187 95T301 68Q378 68 457 82L466 8Q387 -10 298 -10Q179 -10 125 39T70 186V480Q70 577 124 626T298 676Q387 676 466 658L457 584Q378 598 301 598Q219 598 188 572T156 475Z" />
<glyph unicode="D" glyph-name="D" horiz-adv-x="597" d="M85 666H318Q532 666 532 475V191Q532 0 318 0H85V666ZM171 589V77H315Q388 77 417 106T446 197V469Q446 530 417 559T315 589H171Z" />
<glyph unicode="E" glyph-name="E" horiz-adv-x="540" d="M85 0V666H477V589H171V380H455V303H171V77H478V0H85Z" />
<glyph unicode="F" glyph-name="F" horiz-adv-x="521" d="M171 0H85V666H481V589H171V367H460V290H171V0Z" />
<glyph unicode="G" glyph-name="G" horiz-adv-x="578" d="M156 475V191Q156 124 184 96T295 68Q359 68 420 80V306H503V19Q404 -10 292 -10Q170 -10 120 39T70 186V479Q70 581 125 628T303 676Q395 676 488 655L478 581Q379 598 299 598Q218 598 187 571T156 475Z" />
<glyph unicode="H" glyph-name="H" horiz-adv-x="637" d="M552 0H466V302H171V0H85V666H171V379H466V666H552V0Z" />
<glyph unicode="I" glyph-name="I" horiz-adv-x="266" d="M176 666V0H90V666H176Z" />
<glyph unicode="J" glyph-name="J" horiz-adv-x="256" d="M85 666H171V-3Q171 -60 153 -87T45 -198L-9 -137Q60 -71 72 -53T85 0V666Z" />
<glyph unicode="K" glyph-name="K" horiz-adv-x="588" d="M171 666V0H85V666H171ZM533 666L289 339L553 0H450L192 339L432 666H533Z" />
<glyph unicode="L" glyph-name="L" horiz-adv-x="500" d="M171 666V77H460V0H85V666H171Z" />
<glyph unicode="M" glyph-name="M" horiz-adv-x="798" d="M341 86L171 540L158 0H75L98 666H207L399 151L591 666H700L723 0H640L627 540L457 86H341Z" />
<glyph unicode="N" glyph-name="N" horiz-adv-x="660" d="M457 0L167 567V0H85V666H203L493 96V666H575V0H457Z" />
<glyph unicode="O" glyph-name="O" horiz-adv-x="622" d="M552 474V192Q552 102 493 46T311 -10T130 46T70 192V474Q70 564 129 620T311 676T492 620T552 474ZM156 472V194Q156 66 311 66T466 194V472Q466 600 311 600T156 472Z" />
<glyph unicode="P" glyph-name="P" horiz-adv-x="557" d="M85 0V666H326Q429 666 474 624T519 502V403Q519 322 474 280T326 238H171V0H85ZM433 501Q433 550 409 569T323 589H171V315H323Q384 315 408 334T433 403V501Z" />
<glyph unicode="Q" glyph-name="Q" horiz-adv-x="622" d="M552 474V192Q552 116 509 63T378 -4L434 -131L357 -166L288 -9Q178 -3 124 52T70 192V474Q70 564 129 620T311 676T492 620T552 474ZM156 472V194Q156 66 311 66T466 194V472Q466 600 311 600T156 472Z" />
<glyph unicode="R" glyph-name="R" horiz-adv-x="632" d="M500 0L334 241H171V0H85V666H339Q442 666 487 624T532 502V406Q532 281 426 251L599 0H500ZM446 501Q446 550 422 569T336 589H171V317H336Q397 317 421 336T446 405V501Z" />
<glyph unicode="S" glyph-name="S" horiz-adv-x="540" d="M475 172Q475 125 467 94T435 38T369 2T258 -10Q147 -10 60 25L74 95Q167 66 260 66Q338 66 363 88T389 170Q389 209 388 224T371 256T332 279T251 299Q188 313 155 326T101 363T76 418T71 504Q71 595
117 635T284 676Q381 676 464 654L457 581Q373 600 286 600Q206 600 182 580T157 501Q157 473 157 462T162 435T173 414T196 400T232 386T289 372Q358 355 393 342T448 304T471 253T475 172Z" />
<glyph unicode="T" glyph-name="T" horiz-adv-x="524" d="M219 0V589H20V666H504V589H305V0H219Z" />
<glyph unicode="U" glyph-name="U" horiz-adv-x="632" d="M466 666H552V187Q552 98 495 44T316 -10T137 44T80 187V666H166V192Q166 67 316 67T466 192V666Z" />
<glyph unicode="V" glyph-name="V" horiz-adv-x="592" d="M238 0L18 666H101L296 75L491 666H574L354 0H238Z" />
<glyph unicode="W" glyph-name="W" horiz-adv-x="908" d="M514 666L652 82L804 666H888L713 0H592L454 595L316 0H195L20 666H104L256 82L394 666H514Z" />
<glyph unicode="X" glyph-name="X" horiz-adv-x="589" d="M30 0L246 338L37 666H129L294 406L460 666H552L342 338L559 0H467L294 270L122 0H30Z" />
<glyph unicode="Y" glyph-name="Y" horiz-adv-x="548" d="M274 294L448 666H538L317 201V0H231V201L10 666H100L274 294Z" />
<glyph unicode="Z" glyph-name="Z" horiz-adv-x="580" d="M508 592L164 74H515V0H70V74L413 592H76V666H508V592Z" />
<glyph unicode="[" glyph-name="bracketleft" horiz-adv-x="309" d="M289 -126H95V790H289V718H179V-54H289V-126Z" />
<glyph unicode="\" glyph-name="backslash" horiz-adv-x="441" d="M307 -117L60 676H140L386 -117H307Z" />
<glyph unicode="]" glyph-name="bracketright" horiz-adv-x="309" d="M214 -126H20V-54H130V718H20V790H214V-126Z" />
<glyph unicode="^" glyph-name="asciicircum" horiz-adv-x="460" d="M415 408L355 377L230 613L105 377L45 408L194 686H266L415 408Z" />
<glyph unicode="_" glyph-name="underscore" horiz-adv-x="430" d="M431 -49H-1V-10H431V-49Z" />
<glyph unicode="`" glyph-name="grave" horiz-adv-x="313" d="M243 598L209 546Q134 586 70 633L106 689Q152 651 243 598Z" />
<glyph unicode="a" glyph-name="a" horiz-adv-x="493" d="M425 339V0H354L349 36Q283 -10 191 -10Q62 -10 62 130Q62 204 98 235T211 267H341V343Q341 389 318 407T235 425Q165 425 89 409L80 476Q161 497 240 497Q341 497 383 459T425 339ZM341 102V197H217Q178
197 162 183T146 132Q146 92 159 77T215 62Q279 62 341 102Z" />
<glyph unicode="b" glyph-name="b" horiz-adv-x="519" d="M461 345V172Q461 81 417 36T254 -10Q162 -10 80 9V686L164 698V463Q228 497 318 497Q461 497 461 345ZM164 386V71Q210 64 260 64Q329 64 353 89T377 169V348Q377 386 359 404T298 423Q240 423 164 386Z" />
<glyph unicode="c" glyph-name="c" horiz-adv-x="409" d="M244 -10Q133 -10 92 33T50 167V320Q50 409 92 453T244 497Q313 497 360 482L353 412Q301 423 246 423Q183 423 159 402T134 323V164Q134 107 158 86T246 64Q301 64 353 75L361 5Q314 -10 244 -10Z" />
<glyph unicode="d" glyph-name="d" horiz-adv-x="523" d="M62 139V338Q62 497 220 497Q286 497 359 482V686L443 698V0H372L365 44Q298 -10 204 -10Q62 -10 62 139ZM359 122V408Q284 423 225 423Q183 423 165 403T146 338V139Q146 100 162 82T221 64Q294 64 359 122Z" />
<glyph unicode="e" glyph-name="e" horiz-adv-x="481" d="M139 170Q139 110 162 86T255 62Q322 62 409 85L420 18Q344 -10 248 -10Q145 -10 100 36T55 169V315Q55 497 246 497Q429 497 429 313V211H139V170ZM139 321V281H348V321Q348 375 326 401T246 427T164
401T139 321Z" />
<glyph unicode="f" glyph-name="f" horiz-adv-x="353" d="M353 692L346 627Q299 636 265 636Q227 636 214 622T200 569V487H339L332 417H200V0H116V417H30V487H116V577Q116 706 254 706Q307 706 353 692Z" />
<glyph unicode="g" glyph-name="g" horiz-adv-x="490" d="M457 487V438L399 427Q424 392 426 330V308Q426 228 378 185T235 142Q208 142 185 145Q150 116 150 93Q150 68 182 65L320 51Q386 44 414 17T442 -66Q442 -148 400 -177T229 -207Q136 -207 52 -184L64
-118Q149 -138 227 -138Q316 -138 339 -125T363 -70Q363 -40 349 -31T291 -17Q278 -16 237 -12T162 -5Q67 3 67 84Q67 135 113 170Q45 208 45 308V330Q45 413 89 455T235 497Q284 497 317 487H457ZM346 329Q346 382 321 405T235 428Q174 428 149 406T124 329V308Q124
253 149 232T235 211Q294 211 320 235T346 308V329Z" />
<glyph unicode="h" glyph-name="h" horiz-adv-x="533" d="M458 0H374V372Q374 417 327 417Q300 417 252 402T164 367V0H80V686L164 698V446Q270 497 352 497Q458 497 458 373V0Z" />
<glyph unicode="i" glyph-name="i" horiz-adv-x="244" d="M164 0H80V487H164V0ZM164 565H80V686H164V565Z" />
<glyph unicode="j" glyph-name="j" horiz-adv-x="239" d="M80 487H164V-31Q164 -82 148 -107T51 -202L0 -143Q58 -91 69 -75T80 -26V487ZM164 565H80V686H164V565Z" />
<glyph unicode="k" glyph-name="k" horiz-adv-x="484" d="M164 0H80V686L164 698V0ZM357 487H454L280 246L462 0H363L185 246L357 487Z" />
<glyph unicode="l" glyph-name="l" horiz-adv-x="244" d="M164 0H80V686L164 698V0Z" />
<glyph unicode="m" glyph-name="m" horiz-adv-x="827" d="M752 0H668V372Q668 417 621 417Q591 417 545 403T458 368V0H374V372Q374 417 327 417Q300 417 252 403T164 368V0H80V487H148L156 445Q264 497 352 497Q423 497 445 445Q553 497 646 497Q752 497 752 373V0Z" />
<glyph unicode="n" glyph-name="n" horiz-adv-x="533" d="M458 0H374V372Q374 417 327 417Q300 417 252 403T164 368V0H80V487H148L156 445Q264 497 352 497Q458 497 458 373V0Z" />
<glyph unicode="o" glyph-name="o" horiz-adv-x="506" d="M451 173Q451 91 403 41T253 -10T104 40T55 173V314Q55 396 103 446T253 497T402 447T451 314V173ZM367 317Q367 424 253 424T139 317V170Q139 63 253 63T367 170V317Z" />
<glyph unicode="p" glyph-name="p" horiz-adv-x="523" d="M461 348V149Q461 -10 303 -10Q237 -10 164 5V-197L80 -209V487H151L158 443Q225 497 319 497Q461 497 461 348ZM164 365V79Q239 64 298 64Q340 64 358 84T377 149V348Q377 387 361 405T302 423Q229 423 164 365Z" />
<glyph unicode="q" glyph-name="q" horiz-adv-x="519" d="M58 142V315Q58 406 102 451T265 497Q357 497 439 478V-197L355 -209V24Q291 -10 201 -10Q58 -10 58 142ZM355 101V416Q309 423 259 423Q190 423 166 398T142 318V139Q142 101 160 83T221 64Q279 64 355 101Z" />
<glyph unicode="r" glyph-name="r" horiz-adv-x="308" d="M292 497L303 420Q243 391 164 336V0H80V487H153L158 419Q219 467 292 497Z" />
<glyph unicode="s" glyph-name="s" horiz-adv-x="439" d="M383 131Q383 55 349 23T215 -10Q128 -10 60 16L71 82Q141 62 210 62Q266 62 283 75T300 128T285 180T198 210Q110 232 88 259T66 366Q66 435 103 466T234 497Q310 497 372 480L366 411Q294 425 231 425Q180
425 165 412T149 364Q149 321 161 308T232 280Q287 266 315 256T359 228T379 191T383 131Z" />
<glyph unicode="t" glyph-name="t" horiz-adv-x="369" d="M323 73L334 8Q285 -10 232 -10Q169 -10 140 15T111 101V417H25V487H111V607L195 619V487H333L326 417H195V115Q195 85 204 73T245 61Q276 61 323 73Z" />
<glyph unicode="u" glyph-name="u" horiz-adv-x="533" d="M75 487H159V115Q159 70 206 70Q233 70 281 84T369 119V487H453V0H385L377 42Q269 -10 181 -10Q75 -10 75 114V487Z" />
<glyph unicode="v" glyph-name="v" horiz-adv-x="450" d="M225 69L359 487H442L281 0H169L8 487H91L225 69Z" />
<glyph unicode="w" glyph-name="w" horiz-adv-x="696" d="M574 0H466L348 413L230 0H122L18 487H98L179 83L297 487H399L517 83L598 487H678L574 0Z" />
<glyph unicode="x" glyph-name="x" horiz-adv-x="448" d="M107 0H18L178 245L21 487H108L224 308L340 487H427L269 245L430 0H342L224 181L107 0Z" />
<glyph unicode="y" glyph-name="y" horiz-adv-x="448" d="M133 -197L201 0H166L8 487H91L224 67L359 487H442L281 0L212 -197H133Z" />
<glyph unicode="z" glyph-name="z" horiz-adv-x="459" d="M65 419V487H401L400 419L152 68H404V0H60V68L308 419H65Z" />
<glyph unicode="{" glyph-name="braceleft" horiz-adv-x="313" d="M78 290H55V358H78Q102 358 111 368T120 400V658Q120 730 145 760T238 790H303V719H243Q222 719 213 710T204 679V438Q204 373 186 349Q170 326 137 324Q156 323 170 314T190 295T200 267T203
240T204 216Q204 212 204 210V-31Q204 -53 213 -62T243 -71H303V-142H238Q171 -142 146 -112T120 -10V248Q120 269 111 279T78 290Z" />
<glyph unicode="|" glyph-name="bar" horiz-adv-x="257" d="M157 790V-210H100V790H157Z" />
<glyph unicode="}" glyph-name="braceright" horiz-adv-x="313" d="M258 290H235Q211 290 202 280T193 248V-10Q193 -82 168 -112T75 -142H10V-71H70Q91 -71 100 -62T109 -31V210Q109 275 127 299Q143 322 176 324Q157 325 143 334T123 353T113 381T110 408T109
432Q109 436 109 438V679Q109 701 100 710T70 719H10V790H75Q142 790 167 760T193 658V400Q193 379 202 369T235 358H258V290Z" />
<glyph unicode="~" glyph-name="asciitilde" horiz-adv-x="500" d="M402 345L455 321Q416 203 328 203Q297 203 269 221T216 257T172 276Q145 276 130 258T98 200L45 226Q67 284 96 313T173 343Q209 343 257 306T329 269Q350 269 365 282T386 307T402 345Z" />
</font>
</defs>
</svg>
